<svg xmlns="http://www.w3.org/2000/svg" width="25.544" height="25.355" viewBox="0 0 25.544 25.355">
  <defs>
    <style>
      .cls-1 {
        fill: #0277bd;
      }
    </style>
  </defs>
  <g id="calendar-with-a-clock-time-tools" transform="translate(-0.001)">
    <path id="Path_510" data-name="Path 510" class="cls-1" d="M3.194,3.962V.792a.8.8,0,0,1,1.6,0V3.962a.8.8,0,0,1-1.6,0Zm13.57.792a.8.8,0,0,0,.8-.792V.792a.8.8,0,0,0-1.6,0V3.962A.8.8,0,0,0,16.764,4.754Zm8.781,14.262a6.386,6.386,0,1,1-6.386-6.339A6.363,6.363,0,0,1,25.545,19.016Zm-1.6,0a4.79,4.79,0,1,0-4.79,4.754A4.777,4.777,0,0,0,23.949,19.016ZM6.387,9.508H3.194v3.169H6.387ZM3.194,17.431H6.387V14.262H3.194Zm4.789-4.754h3.193V9.508H7.983Zm0,4.754h3.193V14.262H7.983ZM1.6,18.858V7.923H19.159v3.169h1.6V4.912a1.735,1.735,0,0,0-1.729-1.743h-.666v.793a1.6,1.6,0,0,1-3.193,0V3.169H5.589v.793a1.6,1.6,0,0,1-3.193,0V3.169H1.731A1.736,1.736,0,0,0,0,4.912V18.858A1.738,1.738,0,0,0,1.731,20.6h9.446V19.016H1.731A.15.15,0,0,1,1.6,18.858Zm14.368-6.181V9.508H12.773v3.169Zm5.588,6.339H19.159V16.639a.8.8,0,0,0-1.6,0v3.17a.8.8,0,0,0,.8.792h3.193a.792.792,0,1,0,0-1.585Z"/>
  </g>
</svg>
